<mxfile host="app.diagrams.net" modified="2023-09-24T15:52:24.887Z" agent="Mozilla/5.0 (Windows NT 10.0; Win64; x64) AppleWebKit/537.36 (KHTML, like Gecko) Chrome/116.0.0.0 Safari/537.36" etag="UZHjKRfi0LAM0u_z3FMC" version="21.8.2" type="device">
  <diagram name="PÃ¡gina-1" id="WpARVTJ1HmEQhtYCK2xl">
    <mxGraphModel dx="3616" dy="1273" grid="1" gridSize="10" guides="1" tooltips="1" connect="1" arrows="1" fold="1" page="1" pageScale="1" pageWidth="827" pageHeight="1169" math="0" shadow="0">
      <root>
        <mxCell id="0" />
        <mxCell id="1" parent="0" />
        <mxCell id="OlxuY8mavvK5VCIO3qiq-7" value="" style="rounded=0;whiteSpace=wrap;html=1;" vertex="1" parent="1">
          <mxGeometry x="310" y="80" width="1810" height="800" as="geometry" />
        </mxCell>
        <mxCell id="b7i35RfMixsBGqqHLbo9-1" value="" style="shape=image;verticalLabelPosition=bottom;labelBackgroundColor=default;verticalAlign=top;aspect=fixed;imageAspect=0;image=https://pbs.twimg.com/profile_images/1480200900123762691/6OM3MsTp_400x400.jpg;" parent="1" vertex="1">
          <mxGeometry x="40" y="200" width="189" height="189" as="geometry" />
        </mxCell>
        <mxCell id="b7i35RfMixsBGqqHLbo9-4" value="" style="shape=image;verticalLabelPosition=bottom;labelBackgroundColor=default;verticalAlign=top;aspect=fixed;imageAspect=0;image=https://cdn2.hubspot.net/hubfs/4367560/Imported_Blog_Media/scrapy.png;" parent="1" vertex="1">
          <mxGeometry x="350" y="214.5" width="160" height="160" as="geometry" />
        </mxCell>
        <mxCell id="b7i35RfMixsBGqqHLbo9-5" value="" style="shape=flexArrow;endArrow=classic;html=1;rounded=0;exitX=1;exitY=0.5;exitDx=0;exitDy=0;" parent="1" source="b7i35RfMixsBGqqHLbo9-1" edge="1">
          <mxGeometry width="50" height="50" relative="1" as="geometry">
            <mxPoint x="410" y="290" as="sourcePoint" />
            <mxPoint x="340" y="295" as="targetPoint" />
          </mxGeometry>
        </mxCell>
        <mxCell id="b7i35RfMixsBGqqHLbo9-10" value="&lt;h1&gt;MODELO&lt;/h1&gt;" style="ellipse;whiteSpace=wrap;html=1;" parent="1" vertex="1">
          <mxGeometry x="1499.55" y="680" width="240" height="130" as="geometry" />
        </mxCell>
        <mxCell id="b7i35RfMixsBGqqHLbo9-12" value="" style="shape=flexArrow;endArrow=classic;html=1;rounded=0;entryX=0.122;entryY=0.564;entryDx=0;entryDy=0;entryPerimeter=0;" parent="1" edge="1">
          <mxGeometry width="50" height="50" relative="1" as="geometry">
            <mxPoint x="520" y="300" as="sourcePoint" />
            <mxPoint x="650.0079999999998" y="302.996" as="targetPoint" />
          </mxGeometry>
        </mxCell>
        <mxCell id="b7i35RfMixsBGqqHLbo9-17" value="" style="group" parent="1" vertex="1" connectable="0">
          <mxGeometry x="827" y="120" width="573" height="545.5" as="geometry" />
        </mxCell>
        <mxCell id="b7i35RfMixsBGqqHLbo9-14" value="" style="whiteSpace=wrap;html=1;aspect=fixed;fillColor=#B9E0A5;strokeColor=none;" parent="b7i35RfMixsBGqqHLbo9-17" vertex="1">
          <mxGeometry x="64.93" y="-28" width="400" height="400" as="geometry" />
        </mxCell>
        <mxCell id="b7i35RfMixsBGqqHLbo9-15" value="&lt;h1 style=&quot;font-size: 37px;&quot;&gt;ETL&lt;/h1&gt;" style="text;html=1;strokeColor=none;fillColor=none;align=center;verticalAlign=middle;whiteSpace=wrap;rounded=0;" parent="b7i35RfMixsBGqqHLbo9-17" vertex="1">
          <mxGeometry x="180" y="10" width="190" height="50" as="geometry" />
        </mxCell>
        <mxCell id="OlxuY8mavvK5VCIO3qiq-2" value="" style="shape=image;verticalLabelPosition=bottom;labelBackgroundColor=default;verticalAlign=top;aspect=fixed;imageAspect=0;image=https://cms.rootstack.com/sites/default/files/inline-images/Python-Symbol_0.png;" vertex="1" parent="b7i35RfMixsBGqqHLbo9-17">
          <mxGeometry x="120.03999999999999" y="90.5" width="289.78" height="163" as="geometry" />
        </mxCell>
        <mxCell id="OlxuY8mavvK5VCIO3qiq-14" value="" style="group" vertex="1" connectable="0" parent="b7i35RfMixsBGqqHLbo9-17">
          <mxGeometry x="-47" y="400" width="570" height="40" as="geometry" />
        </mxCell>
        <mxCell id="OlxuY8mavvK5VCIO3qiq-11" value="" style="endArrow=none;dashed=1;html=1;rounded=0;" edge="1" parent="OlxuY8mavvK5VCIO3qiq-14">
          <mxGeometry width="50" height="50" relative="1" as="geometry">
            <mxPoint x="126.93" as="sourcePoint" />
            <mxPoint x="496.93" as="targetPoint" />
          </mxGeometry>
        </mxCell>
        <mxCell id="OlxuY8mavvK5VCIO3qiq-13" value="&lt;span style=&quot;font-size: 36px;&quot;&gt;ETL_DAG&lt;/span&gt;" style="text;html=1;strokeColor=none;fillColor=none;align=center;verticalAlign=middle;whiteSpace=wrap;rounded=0;" vertex="1" parent="OlxuY8mavvK5VCIO3qiq-14">
          <mxGeometry y="10" width="570" height="30" as="geometry" />
        </mxCell>
        <mxCell id="b7i35RfMixsBGqqHLbo9-16" value="" style="shape=flexArrow;endArrow=classic;html=1;rounded=0;endWidth=38.18181818181818;endSize=6.8181818181818175;" parent="1" target="b7i35RfMixsBGqqHLbo9-14" edge="1">
          <mxGeometry width="50" height="50" relative="1" as="geometry">
            <mxPoint x="794" y="292.5" as="sourcePoint" />
            <mxPoint x="1100" y="220" as="targetPoint" />
          </mxGeometry>
        </mxCell>
        <mxCell id="b7i35RfMixsBGqqHLbo9-20" value="" style="group" parent="1" vertex="1" connectable="0">
          <mxGeometry x="1760" y="640" width="391.25" height="568" as="geometry" />
        </mxCell>
        <mxCell id="b7i35RfMixsBGqqHLbo9-9" value="" style="shape=image;verticalLabelPosition=bottom;labelBackgroundColor=default;verticalAlign=top;aspect=fixed;imageAspect=0;image=https://upload.wikimedia.org/wikipedia/commons/thumb/0/05/Scikit_learn_logo_small.svg/1200px-Scikit_learn_logo_small.svg.png;" parent="b7i35RfMixsBGqqHLbo9-20" vertex="1">
          <mxGeometry x="30" y="-14.5" width="364.09" height="196" as="geometry" />
        </mxCell>
        <mxCell id="b7i35RfMixsBGqqHLbo9-18" value="&lt;h1&gt;TRAINING&lt;/h1&gt;&lt;div&gt;Last 6 month data&lt;/div&gt;" style="rounded=0;whiteSpace=wrap;html=1;" parent="b7i35RfMixsBGqqHLbo9-20" vertex="1">
          <mxGeometry x="-10" y="-56" width="160" height="90" as="geometry" />
        </mxCell>
        <mxCell id="OlxuY8mavvK5VCIO3qiq-30" value="&lt;h1&gt;FRONTEND&lt;/h1&gt;" style="text;html=1;strokeColor=none;fillColor=none;align=center;verticalAlign=middle;whiteSpace=wrap;rounded=0;" vertex="1" parent="b7i35RfMixsBGqqHLbo9-20">
          <mxGeometry x="-128.75" y="320" width="60" height="30" as="geometry" />
        </mxCell>
        <mxCell id="b7i35RfMixsBGqqHLbo9-21" value="" style="endArrow=classic;html=1;rounded=0;" parent="1" source="b7i35RfMixsBGqqHLbo9-9" target="b7i35RfMixsBGqqHLbo9-10" edge="1">
          <mxGeometry width="50" height="50" relative="1" as="geometry">
            <mxPoint x="1170" y="440" as="sourcePoint" />
            <mxPoint x="1220" y="390" as="targetPoint" />
          </mxGeometry>
        </mxCell>
        <mxCell id="b7i35RfMixsBGqqHLbo9-23" value="&lt;h1&gt;&lt;font color=&quot;#ffa319&quot;&gt;Every day&lt;/font&gt;&lt;/h1&gt;" style="ellipse;shape=cloud;whiteSpace=wrap;html=1;" parent="1" vertex="1">
          <mxGeometry x="320" y="155" width="220" height="90" as="geometry" />
        </mxCell>
        <mxCell id="b7i35RfMixsBGqqHLbo9-29" value="" style="shape=image;verticalLabelPosition=bottom;labelBackgroundColor=default;verticalAlign=top;aspect=fixed;imageAspect=0;image=https://res.cloudinary.com/practicaldev/image/fetch/s--rQS9VcWG--/c_imagga_scale,f_auto,fl_progressive,h_720,q_auto,w_1280/https://dev-to-uploads.s3.amazonaws.com/uploads/articles/zojuy79lo3fn3qdt7g6p.png;" parent="1" vertex="1">
          <mxGeometry x="920" y="930" width="444.44" height="250" as="geometry" />
        </mxCell>
        <mxCell id="b7i35RfMixsBGqqHLbo9-30" value="&lt;h1&gt;BACKEND&lt;/h1&gt;" style="text;html=1;strokeColor=none;fillColor=none;align=center;verticalAlign=middle;whiteSpace=wrap;rounded=0;" parent="1" vertex="1">
          <mxGeometry x="800" y="930" width="60" height="30" as="geometry" />
        </mxCell>
        <mxCell id="OlxuY8mavvK5VCIO3qiq-1" value="" style="shape=image;verticalLabelPosition=bottom;labelBackgroundColor=default;verticalAlign=top;aspect=fixed;imageAspect=0;image=https://www.opc-router.de/wp-content/uploads/2021/03/mongodb_thumbnail.png;" vertex="1" parent="1">
          <mxGeometry x="630" y="180" width="178.44" height="240" as="geometry" />
        </mxCell>
        <mxCell id="OlxuY8mavvK5VCIO3qiq-3" value="" style="shape=image;verticalLabelPosition=bottom;labelBackgroundColor=default;verticalAlign=top;aspect=fixed;imageAspect=0;image=https://dc722jrlp2zu8.cloudfront.net/media/django-summernote/2018-03-23/e3372d52-91ff-4e45-90de-79200223e060.jpg;" vertex="1" parent="1">
          <mxGeometry x="1367" y="400" width="153" height="120" as="geometry" />
        </mxCell>
        <mxCell id="OlxuY8mavvK5VCIO3qiq-4" value="" style="shape=flexArrow;endArrow=classic;html=1;rounded=0;exitX=1;exitY=0.5;exitDx=0;exitDy=0;" edge="1" parent="1" source="b7i35RfMixsBGqqHLbo9-14" target="OlxuY8mavvK5VCIO3qiq-3">
          <mxGeometry width="50" height="50" relative="1" as="geometry">
            <mxPoint x="1360" y="262" as="sourcePoint" />
            <mxPoint x="1230" y="310" as="targetPoint" />
          </mxGeometry>
        </mxCell>
        <mxCell id="OlxuY8mavvK5VCIO3qiq-5" value="" style="shape=flexArrow;endArrow=classic;html=1;rounded=0;exitX=1.011;exitY=0.655;exitDx=0;exitDy=0;exitPerimeter=0;" edge="1" parent="1" source="OlxuY8mavvK5VCIO3qiq-3" target="b7i35RfMixsBGqqHLbo9-18">
          <mxGeometry width="50" height="50" relative="1" as="geometry">
            <mxPoint x="1600" y="250" as="sourcePoint" />
            <mxPoint x="1441" y="271" as="targetPoint" />
          </mxGeometry>
        </mxCell>
        <mxCell id="b7i35RfMixsBGqqHLbo9-24" value="&lt;h1&gt;&lt;font color=&quot;#ffa319&quot;&gt;New Data&lt;/font&gt;&lt;/h1&gt;" style="ellipse;shape=cloud;whiteSpace=wrap;html=1;" parent="1" vertex="1">
          <mxGeometry x="1380" y="590.49" width="169.55" height="89.51" as="geometry" />
        </mxCell>
        <mxCell id="b7i35RfMixsBGqqHLbo9-6" value="" style="shape=image;verticalLabelPosition=bottom;labelBackgroundColor=default;verticalAlign=top;aspect=fixed;imageAspect=0;image=https://upload.wikimedia.org/wikipedia/commons/d/de/AirflowLogo.png;" parent="1" vertex="1">
          <mxGeometry x="1460" y="110" width="620.68" height="240" as="geometry" />
        </mxCell>
        <mxCell id="OlxuY8mavvK5VCIO3qiq-9" value="" style="endArrow=none;dashed=1;html=1;rounded=0;" edge="1" parent="1">
          <mxGeometry width="50" height="50" relative="1" as="geometry">
            <mxPoint x="340" y="520" as="sourcePoint" />
            <mxPoint x="870" y="520" as="targetPoint" />
          </mxGeometry>
        </mxCell>
        <mxCell id="OlxuY8mavvK5VCIO3qiq-12" value="&lt;font style=&quot;font-size: 36px;&quot;&gt;ingestion_DAG&lt;/font&gt;" style="text;html=1;strokeColor=none;fillColor=none;align=center;verticalAlign=middle;whiteSpace=wrap;rounded=0;" vertex="1" parent="1">
          <mxGeometry x="300" y="530" width="570" height="30" as="geometry" />
        </mxCell>
        <mxCell id="OlxuY8mavvK5VCIO3qiq-18" value="" style="shape=flexArrow;endArrow=classic;startArrow=classic;html=1;rounded=0;exitX=0.364;exitY=0.005;exitDx=0;exitDy=0;exitPerimeter=0;" edge="1" parent="1" source="b7i35RfMixsBGqqHLbo9-10" target="OlxuY8mavvK5VCIO3qiq-3">
          <mxGeometry width="100" height="100" relative="1" as="geometry">
            <mxPoint x="890" y="630" as="sourcePoint" />
            <mxPoint x="990" y="530" as="targetPoint" />
          </mxGeometry>
        </mxCell>
        <mxCell id="OlxuY8mavvK5VCIO3qiq-21" value="" style="group" vertex="1" connectable="0" parent="1">
          <mxGeometry x="1470" y="359.5096189432334" width="570" height="270.9807621135332" as="geometry" />
        </mxCell>
        <mxCell id="OlxuY8mavvK5VCIO3qiq-17" value="&lt;span style=&quot;font-size: 36px;&quot;&gt;Training_DAG&lt;/span&gt;" style="text;html=1;strokeColor=none;fillColor=none;align=center;verticalAlign=middle;whiteSpace=wrap;rounded=0;rotation=0;" vertex="1" parent="OlxuY8mavvK5VCIO3qiq-21">
          <mxGeometry x="184" y="130.49038105676658" width="490" height="30" as="geometry" />
        </mxCell>
        <mxCell id="OlxuY8mavvK5VCIO3qiq-31" value="" style="endArrow=none;dashed=1;html=1;rounded=0;" edge="1" parent="OlxuY8mavvK5VCIO3qiq-21">
          <mxGeometry width="50" height="50" relative="1" as="geometry">
            <mxPoint x="244.00000000000023" y="170.49038105676658" as="sourcePoint" />
            <mxPoint x="614" y="170.49038105676658" as="targetPoint" />
          </mxGeometry>
        </mxCell>
        <mxCell id="OlxuY8mavvK5VCIO3qiq-29" value="" style="shape=flexArrow;endArrow=classic;html=1;rounded=0;entryX=0;entryY=0;entryDx=0;entryDy=0;" edge="1" parent="1">
          <mxGeometry width="50" height="50" relative="1" as="geometry">
            <mxPoint x="1400" y="530" as="sourcePoint" />
            <mxPoint x="1260" y="894" as="targetPoint" />
          </mxGeometry>
        </mxCell>
        <mxCell id="OlxuY8mavvK5VCIO3qiq-32" value="" style="shape=image;verticalLabelPosition=bottom;labelBackgroundColor=default;verticalAlign=top;aspect=fixed;imageAspect=0;image=https://www.bairesdev.com/wp-content/uploads/2022/06/Picture6-1.svg;" vertex="1" parent="1">
          <mxGeometry x="1490" y="1000" width="331.04" height="208" as="geometry" />
        </mxCell>
        <mxCell id="OlxuY8mavvK5VCIO3qiq-34" value="" style="shape=flexArrow;endArrow=classic;startArrow=classic;html=1;rounded=0;entryX=1;entryY=0.75;entryDx=0;entryDy=0;" edge="1" parent="1" source="OlxuY8mavvK5VCIO3qiq-32" target="b7i35RfMixsBGqqHLbo9-29">
          <mxGeometry width="100" height="100" relative="1" as="geometry">
            <mxPoint x="770" y="660" as="sourcePoint" />
            <mxPoint x="870" y="560" as="targetPoint" />
          </mxGeometry>
        </mxCell>
        <mxCell id="OlxuY8mavvK5VCIO3qiq-36" value="" style="group" vertex="1" connectable="0" parent="1">
          <mxGeometry x="1280" y="820" width="570" height="40" as="geometry" />
        </mxCell>
        <mxCell id="OlxuY8mavvK5VCIO3qiq-37" value="" style="endArrow=none;dashed=1;html=1;rounded=0;" edge="1" parent="OlxuY8mavvK5VCIO3qiq-36">
          <mxGeometry width="50" height="50" relative="1" as="geometry">
            <mxPoint x="126.93" as="sourcePoint" />
            <mxPoint x="496.93" as="targetPoint" />
          </mxGeometry>
        </mxCell>
        <mxCell id="OlxuY8mavvK5VCIO3qiq-38" value="&lt;span style=&quot;font-size: 36px;&quot;&gt;Analysis_DAG&lt;/span&gt;" style="text;html=1;strokeColor=none;fillColor=none;align=center;verticalAlign=middle;whiteSpace=wrap;rounded=0;" vertex="1" parent="OlxuY8mavvK5VCIO3qiq-36">
          <mxGeometry y="10" width="570" height="30" as="geometry" />
        </mxCell>
      </root>
    </mxGraphModel>
  </diagram>
</mxfile>
